<svg xmlns="http://www.w3.org/2000/svg" viewBox="0 0 64 64" width="64" height="64">
  <rect width="64" height="64" rx="16" fill="#1f5138"/>
  <g transform="translate(32 34)" fill="none" stroke="#e4ce96" stroke-width="2.4" stroke-linecap="round" stroke-linejoin="round">
    <!-- pétala central -->
    <path d="M0 -18 C 6 -10 6 -2 0 4 C -6 -2 -6 -10 0 -18 Z"/>
    <!-- pétalas laterais internas -->
    <path d="M0 4 C -8 -4 -15 -6 -18 -2 C -13 4 -6 6 0 4 Z"/>
    <path d="M0 4 C 8 -4 15 -6 18 -2 C 13 4 6 6 0 4 Z"/>
    <!-- base -->
    <path d="M-19 0 C -12 8 -5 10 0 9 C 5 10 12 8 19 0 C 12 12 5 15 0 15 C -5 15 -12 12 -19 0 Z"/>
  </g>
  <circle cx="32" cy="30" r="3" fill="#e4ce96"/>
</svg>
